<svg width="21" height="19" viewBox="0 0 21 19" fill="none" xmlns="http://www.w3.org/2000/svg">
<path fill-rule="evenodd" clip-rule="evenodd" d="M10.3796 0.74998C10.4192 0.750002 10.4593 0.750023 10.5 0.750023C10.5407 0.750023 10.5808 0.750002 10.6204 0.74998C11.3163 0.749603 11.8332 0.749324 12.2809 0.869283C13.4887 1.19292 14.4321 2.13633 14.7557 3.34416C14.8278 3.61319 14.8565 3.90719 14.8678 4.25002L16.4837 4.25002C16.945 4.25001 17.3429 4.24999 17.6707 4.27677C18.0166 4.30503 18.3606 4.36744 18.6917 4.53613C19.1857 4.7878 19.5872 5.18937 19.8389 5.6833C20.0076 6.01438 20.07 6.35845 20.0983 6.70437C20.125 7.03212 20.125 7.43003 20.125 7.89128V14.6088C20.125 15.07 20.125 15.4679 20.0983 15.7957C20.07 16.1416 20.0076 16.4857 19.8389 16.8167C19.5872 17.3107 19.1857 17.7122 18.6917 17.9639C18.3606 18.1326 18.0166 18.195 17.6707 18.2233C17.3429 18.2501 16.945 18.25 16.4837 18.25H4.51626C4.05501 18.25 3.6571 18.2501 3.32935 18.2233C2.98343 18.195 2.63936 18.1326 2.30828 17.9639C1.81435 17.7122 1.41278 17.3107 1.16111 16.8167C0.992415 16.4857 0.930013 16.1416 0.90175 15.7957C0.874972 15.4679 0.874985 15.07 0.875001 14.6087V7.8913C0.874985 7.43004 0.874972 7.03212 0.90175 6.70437C0.930013 6.35845 0.992415 6.01438 1.16111 5.6833C1.41278 5.18937 1.81435 4.7878 2.30828 4.53613C2.63936 4.36744 2.98342 4.30503 3.32935 4.27677C3.6571 4.24999 4.05502 4.25001 4.51628 4.25002L6.13219 4.25002C6.14351 3.90719 6.17217 3.61319 6.24426 3.34416C6.5679 2.13633 7.51131 1.19292 8.71913 0.869283C9.16683 0.749324 9.68366 0.749603 10.3796 0.74998ZM4.55 6.00002C4.04552 6.00002 3.71978 6.0007 3.47186 6.02096C3.23415 6.04038 3.14602 6.07335 3.10276 6.09539C2.93812 6.17928 2.80426 6.31314 2.72037 6.47778C2.69833 6.52104 2.66536 6.60917 2.64594 6.84688C2.62568 7.0948 2.625 7.42054 2.625 7.92502V14.575C2.625 15.0795 2.62568 15.4052 2.64594 15.6532C2.66536 15.8909 2.69833 15.979 2.72037 16.0223C2.80426 16.1869 2.93812 16.3208 3.10276 16.4047C3.14602 16.4267 3.23415 16.4597 3.47186 16.4791C3.71978 16.4993 4.04552 16.5 4.55 16.5H16.45C16.9545 16.5 17.2802 16.4993 17.5281 16.4791C17.7659 16.4597 17.854 16.4267 17.8972 16.4047C18.0619 16.3208 18.1957 16.1869 18.2796 16.0223C18.3017 15.979 18.3346 15.8909 18.3541 15.6532C18.3743 15.4052 18.375 15.0795 18.375 14.575V7.92502C18.375 7.42054 18.3743 7.0948 18.3541 6.84688C18.3346 6.60917 18.3017 6.52104 18.2796 6.47778C18.1957 6.31314 18.0619 6.17928 17.8972 6.09539C17.854 6.07335 17.7659 6.04038 17.5281 6.02096C17.2802 6.0007 16.9545 6.00002 16.45 6.00002H4.55ZM13.1164 4.25002H7.88363C7.89167 4.02465 7.90678 3.90103 7.93463 3.79709C8.09645 3.19318 8.56816 2.72147 9.17207 2.55965C9.36656 2.50754 9.62994 2.50002 10.5 2.50002C11.3701 2.50002 11.6334 2.50754 11.8279 2.55965C12.4318 2.72147 12.9036 3.19318 13.0654 3.79709C13.0932 3.90103 13.1083 4.02465 13.1164 4.25002Z" fill="#8077F6"/>
</svg>
