<svg width="21" height="18" viewBox="0 0 21 18" fill="none" xmlns="http://www.w3.org/2000/svg">
<path fill-rule="evenodd" clip-rule="evenodd" d="M8.31254 2.5C6.62117 2.5 5.25004 3.87113 5.25004 5.5625C5.25004 7.25387 6.62117 8.625 8.31254 8.625C10.0039 8.625 11.375 7.25387 11.375 5.5625C11.375 3.87113 10.0039 2.5 8.31254 2.5ZM3.50004 5.5625C3.50004 2.90463 5.65467 0.75 8.31254 0.75C10.9704 0.75 13.125 2.90463 13.125 5.5625C13.125 8.22037 10.9704 10.375 8.31254 10.375C5.65467 10.375 3.50004 8.22037 3.50004 5.5625ZM13.2165 1.64489C13.4315 1.21213 13.9567 1.03565 14.3894 1.25071C15.9719 2.03715 17.0625 3.67166 17.0625 5.5625C17.0625 7.45334 15.9719 9.08785 14.3894 9.87428C13.9567 10.0893 13.4315 9.91287 13.2165 9.48011C13.0014 9.04736 13.1779 8.5222 13.6106 8.30713C14.6211 7.80495 15.3125 6.76367 15.3125 5.5625C15.3125 4.36133 14.6211 3.32005 13.6106 2.81786C13.1779 2.6028 13.0014 2.07764 13.2165 1.64489ZM8.31254 13.875C6.09112 13.875 4.01412 15.0346 2.43807 17.0406C2.13952 17.4206 1.58944 17.4866 1.20945 17.188C0.829461 16.8895 0.763445 16.3394 1.062 15.9594C2.89231 13.6299 5.44002 12.125 8.31254 12.125C11.1851 12.125 13.7328 13.6299 15.5631 15.9594C15.8616 16.3394 15.7956 16.8895 15.4156 17.188C15.0356 17.4866 14.4856 17.4206 14.187 17.0406C12.611 15.0346 10.534 13.875 8.31254 13.875ZM14.9529 13.3099C15.1521 12.8696 15.6705 12.6742 16.1108 12.8734C17.579 13.5378 18.8773 14.6094 19.9381 15.9594C20.2366 16.3394 20.1706 16.8895 19.7906 17.188C19.4106 17.4866 18.8606 17.4206 18.562 17.0406C17.6496 15.8794 16.5662 15.0003 15.3893 14.4678C14.949 14.2685 14.7536 13.7501 14.9529 13.3099Z" fill="#8077F6"/>
</svg>
