<svg width="19" height="21" viewBox="0 0 19 21" fill="none" xmlns="http://www.w3.org/2000/svg">
<path fill-rule="evenodd" clip-rule="evenodd" d="M13.875 11.375C13.875 13.7913 11.9163 15.75 9.50005 15.75C7.0838 15.75 5.12505 13.7913 5.12505 11.375C5.12505 8.95877 7.0838 7.00002 9.50005 7.00002C11.9163 7.00002 13.875 8.95877 13.875 11.375ZM12.125 11.375C12.125 12.8248 10.9498 14 9.50005 14C8.0503 14 6.87505 12.8248 6.87505 11.375C6.87505 9.92527 8.0503 8.75002 9.50005 8.75002C10.9498 8.75002 12.125 9.92527 12.125 11.375Z" fill="#8077F6"/>
<path fill-rule="evenodd" clip-rule="evenodd" d="M10.9306 1.1988C10.0607 0.633357 8.93937 0.633358 8.06946 1.19881L1.20986 5.65754C0.35304 6.21448 -0.102685 7.21804 0.0418364 8.22969L1.4192 17.8713C1.60395 19.1645 2.71149 20.125 4.01782 20.125H14.9823C16.2886 20.125 17.3962 19.1645 17.5809 17.8713L18.9583 8.22969C19.1028 7.21804 18.6471 6.21448 17.7902 5.65754L10.9306 1.1988ZM9.02319 2.66608C9.31316 2.4776 9.68694 2.4776 9.97692 2.66608L16.8365 7.12482C17.1221 7.31046 17.274 7.64499 17.2259 7.9822L15.8485 17.6238C15.7869 18.0548 15.4177 18.375 14.9823 18.375H4.01782C3.58237 18.375 3.2132 18.0548 3.15161 17.6238L1.77425 7.9822C1.72607 7.64499 1.87798 7.31046 2.16359 7.12482L9.02319 2.66608Z" fill="#8077F6"/>
</svg>
