<svg width="18" height="22" viewBox="0 0 18 22" fill="none" xmlns="http://www.w3.org/2000/svg">
<path d="M17.7607 5.96659L12.0334 0.239318C11.9574 0.163363 11.8671 0.103133 11.7678 0.0620705C11.6685 0.0210075 11.562 -8.42611e-05 11.4545 2.52981e-07H1.63636C1.20237 2.52981e-07 0.786157 0.172402 0.47928 0.47928C0.172402 0.786158 0 1.20237 0 1.63636V19.6364C0 20.0704 0.172402 20.4866 0.47928 20.7934C0.786157 21.1003 1.20237 21.2727 1.63636 21.2727H16.3636C16.7976 21.2727 17.2138 21.1003 17.5207 20.7934C17.8276 20.4866 18 20.0704 18 19.6364V6.54545C18.0001 6.43798 17.979 6.33154 17.9379 6.23221C17.8969 6.13289 17.8366 6.04263 17.7607 5.96659ZM12.2727 2.79307L15.2069 5.72727H12.2727V2.79307ZM16.3636 19.6364H1.63636V1.63636H10.6364V6.54545C10.6364 6.76245 10.7226 6.97056 10.876 7.124C11.0294 7.27743 11.2375 7.36364 11.4545 7.36364H16.3636V19.6364ZM13.0909 11.4545C13.0909 11.6715 13.0047 11.8796 12.8513 12.0331C12.6978 12.1865 12.4897 12.2727 12.2727 12.2727H5.72727C5.51028 12.2727 5.30217 12.1865 5.14873 12.0331C4.99529 11.8796 4.90909 11.6715 4.90909 11.4545C4.90909 11.2375 4.99529 11.0294 5.14873 10.876C5.30217 10.7226 5.51028 10.6364 5.72727 10.6364H12.2727C12.4897 10.6364 12.6978 10.7226 12.8513 10.876C13.0047 11.0294 13.0909 11.2375 13.0909 11.4545ZM13.0909 14.7273C13.0909 14.9443 13.0047 15.1524 12.8513 15.3058C12.6978 15.4593 12.4897 15.5455 12.2727 15.5455H5.72727C5.51028 15.5455 5.30217 15.4593 5.14873 15.3058C4.99529 15.1524 4.90909 14.9443 4.90909 14.7273C4.90909 14.5103 4.99529 14.3022 5.14873 14.1487C5.30217 13.9953 5.51028 13.9091 5.72727 13.9091H12.2727C12.4897 13.9091 12.6978 13.9953 12.8513 14.1487C13.0047 14.3022 13.0909 14.5103 13.0909 14.7273Z" fill="black"/>
</svg>
