<svg width="18" height="18" viewBox="0 0 18 18" fill="none" xmlns="http://www.w3.org/2000/svg">
<path fill-rule="evenodd" clip-rule="evenodd" d="M2.77764 0.666749C2.79013 0.66675 2.80266 0.66675 2.81523 0.66675L15.2219 0.666749C15.6623 0.666728 16.0483 0.666708 16.3512 0.693941C16.6419 0.72007 17.0407 0.781411 17.3638 1.04823C17.7651 1.37962 17.9886 1.87948 17.968 2.39955C17.9514 2.81828 17.7312 3.15638 17.5569 3.39039C17.3752 3.63427 17.1178 3.92192 16.8241 4.25011L12.0438 9.59277C11.9765 9.66802 11.9432 9.70553 11.92 9.73375C11.9194 9.73447 11.9189 9.73517 11.9183 9.73584C11.9183 9.73671 11.9182 9.73761 11.9182 9.73855C11.9166 9.77502 11.9165 9.82521 11.9165 9.92617V14.3821C11.9165 14.3912 11.9166 14.4018 11.9167 14.4138C11.9179 14.5284 11.9205 14.7662 11.8376 14.9883C11.7679 15.175 11.6546 15.3424 11.5071 15.4764C11.3317 15.6358 11.1099 15.7218 11.0031 15.7632C10.9919 15.7675 10.982 15.7714 10.9735 15.7748L8.11702 16.9174C7.98461 16.9704 7.8382 17.029 7.70907 17.0676C7.57017 17.109 7.34199 17.1632 7.0788 17.1085C6.75628 17.0415 6.47326 16.8499 6.29125 16.5753C6.14273 16.3513 6.10831 16.1193 6.0952 15.9749C6.08303 15.8407 6.08307 15.683 6.08312 15.5404L6.08312 9.92617C6.08312 9.82521 6.08295 9.77502 6.08139 9.73855C6.08135 9.73761 6.08131 9.73671 6.08127 9.73584C6.08072 9.73517 6.08015 9.73448 6.07956 9.73375C6.0564 9.70553 6.02306 9.66802 5.95574 9.59277L1.20054 4.27814C1.19216 4.26877 1.1838 4.25943 1.17548 4.25012C0.881803 3.92193 0.624396 3.63427 0.442724 3.39039C0.268413 3.15638 0.0482156 2.81828 0.0315869 2.39955C0.010934 1.87948 0.234427 1.37962 0.635777 1.04823C0.958923 0.781412 1.35772 0.72007 1.64833 0.693941C1.95123 0.666708 2.33724 0.666728 2.77764 0.666749ZM1.75285 2.35841C1.76081 2.36961 1.76961 2.38171 1.77932 2.39475C1.91061 2.571 2.11641 2.80223 2.44261 3.16681L7.19781 8.48145C7.20631 8.49095 7.21507 8.50069 7.22404 8.51067C7.322 8.6196 7.44536 8.75679 7.53694 8.92016C7.61639 9.0619 7.67469 9.21449 7.70999 9.3731C7.75067 9.55591 7.75022 9.74041 7.74985 9.88691C7.74982 9.90033 7.74979 9.91342 7.74979 9.92617V15.2692L10.2498 14.2692V9.92617C10.2498 9.91342 10.2498 9.90033 10.2497 9.88691C10.2494 9.74041 10.2489 9.55591 10.2896 9.3731C10.3249 9.21449 10.3832 9.0619 10.4626 8.92016C10.5542 8.75679 10.6776 8.6196 10.7755 8.51066C10.7845 8.50069 10.7933 8.49095 10.8018 8.48145L15.557 3.16682C15.8832 2.80224 16.089 2.571 16.2203 2.39475C16.23 2.38171 16.2388 2.36961 16.2467 2.35841C16.2331 2.35688 16.2182 2.35537 16.202 2.35391C15.9831 2.33423 15.6736 2.33342 15.1843 2.33342H2.81523C2.32602 2.33342 2.01647 2.33423 1.79758 2.35391C1.78138 2.35537 1.7665 2.35688 1.75285 2.35841Z" fill="#090B0C"/>
</svg>
