<svg width="18" height="18" viewBox="0 0 18 18" fill="none" xmlns="http://www.w3.org/2000/svg">
<path fill-rule="evenodd" clip-rule="evenodd" d="M5.46567 0.666748H12.5345C13.2053 0.666738 13.7589 0.666729 14.2099 0.703577C14.6784 0.741848 15.1089 0.823985 15.5134 1.03006C16.1406 1.34964 16.6505 1.85957 16.9701 2.48678C17.1762 2.89123 17.2583 3.32181 17.2966 3.79023C17.3334 4.24122 17.3334 4.79485 17.3334 5.46565V12.5345C17.3334 13.2053 17.3334 13.7589 17.2966 14.2099C17.2583 14.6784 17.1762 15.1089 16.9701 15.5134C16.6505 16.1406 16.1406 16.6505 15.5134 16.9701C15.1089 17.1762 14.6784 17.2583 14.2099 17.2966C13.7589 17.3334 13.2053 17.3334 12.5345 17.3334H5.46564C4.79485 17.3334 4.24122 17.3334 3.79023 17.2966C3.32181 17.2583 2.89123 17.1762 2.48678 16.9701C1.85957 16.6505 1.34964 16.1406 1.03006 15.5134C0.823985 15.1089 0.741848 14.6784 0.703577 14.2099C0.666729 13.7589 0.666738 13.2053 0.666748 12.5345V5.46567C0.666738 4.79486 0.666729 4.24122 0.703577 3.79023C0.741848 3.32181 0.823985 2.89123 1.03006 2.48678C1.34964 1.85957 1.85957 1.34964 2.48678 1.03006C2.89123 0.823985 3.32181 0.741848 3.79023 0.703577C4.24122 0.666729 4.79486 0.666738 5.46567 0.666748ZM2.33342 9.83342V12.5001C2.33342 13.2139 2.33406 13.6991 2.36471 14.0742C2.39456 14.4396 2.44866 14.6264 2.51507 14.7567C2.67486 15.0703 2.92983 15.3253 3.24343 15.4851C3.37376 15.5515 3.5606 15.6056 3.92595 15.6355C4.30102 15.6661 4.78627 15.6667 5.50008 15.6667H8.16675V9.83342H2.33342ZM8.16675 8.16675H2.33342V5.50008C2.33342 4.78627 2.33406 4.30102 2.36471 3.92595C2.39456 3.5606 2.44866 3.37376 2.51507 3.24343C2.67486 2.92983 2.92983 2.67486 3.24343 2.51507C3.37376 2.44866 3.5606 2.39456 3.92595 2.36471C4.30102 2.33406 4.78627 2.33342 5.50008 2.33342H8.16675V8.16675ZM9.83341 9.83342V15.6667H12.5001C13.2139 15.6667 13.6991 15.6661 14.0742 15.6355C14.4396 15.6056 14.6264 15.5515 14.7567 15.4851C15.0703 15.3253 15.3253 15.0703 15.4851 14.7567C15.5515 14.6264 15.6056 14.4396 15.6355 14.0742C15.6661 13.6991 15.6667 13.2139 15.6667 12.5001V9.83342H9.83341ZM15.6667 8.16675H9.83341V2.33342H12.5001C13.2139 2.33342 13.6991 2.33406 14.0742 2.36471C14.4396 2.39456 14.6264 2.44866 14.7567 2.51507C15.0703 2.67486 15.3253 2.92983 15.4851 3.24343C15.5515 3.37376 15.6056 3.5606 15.6355 3.92595C15.6661 4.30102 15.6667 4.78627 15.6667 5.50008V8.16675Z" fill="#090B0C"/>
</svg>
