<svg width="17" height="18" viewBox="0 0 17 18" fill="none" xmlns="http://www.w3.org/2000/svg">
<path fill-rule="evenodd" clip-rule="evenodd" d="M4.96591 0.666748H12.0347C12.7056 0.666738 13.2592 0.666729 13.7102 0.703577C14.1786 0.741848 14.6092 0.823985 15.0136 1.03006C15.6408 1.34964 16.1508 1.85957 16.4703 2.48678C16.6764 2.89123 16.7586 3.32181 16.7968 3.79023C16.8337 4.24122 16.8337 4.79485 16.8337 5.46565V12.5345C16.8337 13.2053 16.8337 13.7589 16.7968 14.2099C16.7586 14.6784 16.6764 15.1089 16.4703 15.5134C16.1508 16.1406 15.6408 16.6505 15.0136 16.9701C14.6092 17.1762 14.1786 17.2583 13.7102 17.2966C13.2592 17.3334 12.7056 17.3334 12.0348 17.3334H4.96589C4.29509 17.3334 3.74146 17.3334 3.29047 17.2966C2.82206 17.2583 2.39147 17.1762 1.98702 16.9701C1.35982 16.6505 0.849882 16.1406 0.530305 15.5134C0.324229 15.1089 0.242092 14.6784 0.203821 14.2099C0.166973 13.7589 0.166982 13.2053 0.166993 12.5345V5.46567C0.166982 4.79486 0.166973 4.24122 0.203821 3.79023C0.242092 3.32181 0.324229 2.89123 0.530304 2.48678C0.849882 1.85957 1.35982 1.34964 1.98702 1.03006C2.39147 0.823985 2.82206 0.741848 3.29047 0.703577C3.74147 0.666729 4.2951 0.666738 4.96591 0.666748ZM1.83366 7.33342V10.6667H15.167V7.33342H1.83366ZM15.167 5.66675H1.83366V5.50008C1.83366 4.78627 1.83431 4.30102 1.86495 3.92595C1.8948 3.5606 1.94891 3.37376 2.01532 3.24343C2.1751 2.92983 2.43007 2.67486 2.74368 2.51507C2.87401 2.44866 3.06084 2.39456 3.42619 2.36471C3.80127 2.33406 4.28651 2.33342 5.00033 2.33342H12.0003C12.7141 2.33342 13.1994 2.33406 13.5745 2.36471C13.9398 2.39456 14.1266 2.44866 14.257 2.51507C14.5706 2.67486 14.8255 2.92983 14.9853 3.24343C15.0517 3.37376 15.1058 3.5606 15.1357 3.92595C15.1663 4.30102 15.167 4.78627 15.167 5.50008V5.66675ZM15.167 12.3334H1.83366V12.5001C1.83366 13.2139 1.83431 13.6991 1.86495 14.0742C1.8948 14.4396 1.94891 14.6264 2.01532 14.7567C2.1751 15.0703 2.43007 15.3253 2.74368 15.4851C2.87401 15.5515 3.06084 15.6056 3.42619 15.6355C3.80127 15.6661 4.28651 15.6667 5.00033 15.6667H12.0003C12.7141 15.6667 13.1994 15.6661 13.5745 15.6355C13.9398 15.6056 14.1266 15.5515 14.257 15.4851C14.5706 15.3253 14.8255 15.0703 14.9853 14.7567C15.0517 14.6264 15.1058 14.4396 15.1357 14.0742C15.1663 13.6991 15.167 13.2139 15.167 12.5001V12.3334Z" fill="white"/>
</svg>
