<svg width="17" height="18" viewBox="0 0 17 18" fill="none" xmlns="http://www.w3.org/2000/svg">
<path fill-rule="evenodd" clip-rule="evenodd" d="M4.96567 0.666748H12.0345C12.7053 0.666738 13.2589 0.666729 13.7099 0.703577C14.1784 0.741848 14.6089 0.823985 15.0134 1.03006C15.6406 1.34964 16.1505 1.85957 16.4701 2.48678C16.6762 2.89123 16.7583 3.32181 16.7966 3.79023C16.8334 4.24122 16.8334 4.79485 16.8334 5.46565V12.5345C16.8334 13.2053 16.8334 13.7589 16.7966 14.2099C16.7583 14.6784 16.6762 15.1089 16.4701 15.5134C16.1505 16.1406 15.6406 16.6505 15.0134 16.9701C14.6089 17.1762 14.1784 17.2583 13.7099 17.2966C13.2589 17.3334 12.7053 17.3334 12.0345 17.3334H4.96564C4.29485 17.3334 3.74122 17.3334 3.29023 17.2966C2.82181 17.2583 2.39123 17.1762 1.98678 16.9701C1.35957 16.6505 0.849638 16.1406 0.530061 15.5134C0.323985 15.1089 0.241848 14.6784 0.203577 14.2099C0.166729 13.7589 0.166738 13.2053 0.166748 12.5345V5.46567C0.166738 4.79486 0.166729 4.24122 0.203577 3.79023C0.241848 3.32181 0.323985 2.89123 0.53006 2.48678C0.849638 1.85957 1.35957 1.34964 1.98678 1.03006C2.39123 0.823985 2.82181 0.741848 3.29023 0.703577C3.74122 0.666729 4.29486 0.666738 4.96567 0.666748ZM1.83342 7.33342V10.6667H15.1667V7.33342H1.83342ZM15.1667 5.66675H1.83342V5.50008C1.83342 4.78627 1.83406 4.30102 1.86471 3.92595C1.89456 3.5606 1.94866 3.37376 2.01507 3.24343C2.17486 2.92983 2.42983 2.67486 2.74343 2.51507C2.87376 2.44866 3.0606 2.39456 3.42595 2.36471C3.80102 2.33406 4.28627 2.33342 5.00008 2.33342H12.0001C12.7139 2.33342 13.1991 2.33406 13.5742 2.36471C13.9396 2.39456 14.1264 2.44866 14.2567 2.51507C14.5703 2.67486 14.8253 2.92983 14.9851 3.24343C15.0515 3.37376 15.1056 3.5606 15.1355 3.92595C15.1661 4.30102 15.1667 4.78627 15.1667 5.50008V5.66675ZM15.1667 12.3334H1.83342V12.5001C1.83342 13.2139 1.83406 13.6991 1.86471 14.0742C1.89456 14.4396 1.94866 14.6264 2.01507 14.7567C2.17486 15.0703 2.42983 15.3253 2.74343 15.4851C2.87376 15.5515 3.0606 15.6056 3.42595 15.6355C3.80102 15.6661 4.28627 15.6667 5.00008 15.6667H12.0001C12.7139 15.6667 13.1991 15.6661 13.5742 15.6355C13.9396 15.6056 14.1264 15.5515 14.2567 15.4851C14.5703 15.3253 14.8253 15.0703 14.9851 14.7567C15.0515 14.6264 15.1056 14.4396 15.1355 14.0742C15.1661 13.6991 15.1667 13.2139 15.1667 12.5001V12.3334Z" fill="#090B0C"/>
</svg>
