<svg width="18" height="18" viewBox="0 0 18 18" fill="none" xmlns="http://www.w3.org/2000/svg">
<path fill-rule="evenodd" clip-rule="evenodd" d="M5.46591 0.666748H12.5347C13.2056 0.666738 13.7592 0.666729 14.2102 0.703577C14.6786 0.741848 15.1092 0.823985 15.5136 1.03006C16.1408 1.34964 16.6508 1.85957 16.9703 2.48678C17.1764 2.89123 17.2586 3.32181 17.2968 3.79023C17.3337 4.24122 17.3337 4.79485 17.3337 5.46565V10.2786C17.3337 10.8368 17.3337 11.2975 17.3079 11.6747C17.2813 12.0658 17.2241 12.4275 17.0799 12.7757C16.7416 13.5925 16.0927 14.2414 15.2759 14.5797C14.9278 14.7239 14.566 14.781 14.1749 14.8077C13.7978 14.8334 13.337 14.8334 12.7789 14.8334H12.7503C12.3032 14.8334 12.2144 14.8387 12.1422 14.8557C12.0163 14.8854 11.899 14.9441 11.7997 15.027C11.7427 15.0745 11.6853 15.1424 11.417 15.5001L10.1862 17.1411C10.1084 17.2449 10.0205 17.3623 9.93583 17.4564C9.84249 17.5601 9.68736 17.713 9.45341 17.804C9.16199 17.9173 8.83866 17.9173 8.54724 17.804C8.3133 17.713 8.15816 17.5601 8.06483 17.4564C7.98019 17.3623 7.89224 17.2449 7.81445 17.1411L6.58366 15.5001C6.31538 15.1424 6.25793 15.0745 6.20095 15.027C6.10162 14.9441 5.98436 14.8854 5.85845 14.8557C5.78622 14.8387 5.69746 14.8334 5.25033 14.8334H5.22177C4.66361 14.8334 4.20288 14.8334 3.82571 14.8077C3.43464 14.781 3.07289 14.7239 2.72471 14.5797C1.90795 14.2414 1.25904 13.5925 0.920728 12.7757C0.776508 12.4275 0.719396 12.0658 0.692714 11.6747C0.666979 11.2975 0.666985 10.8368 0.666993 10.2786L0.666993 5.46567C0.666982 4.79486 0.666973 4.24122 0.703821 3.79023C0.742092 3.32181 0.824229 2.89123 1.0303 2.48678C1.34988 1.85957 1.85982 1.34964 2.48702 1.03006C2.89147 0.823985 3.32206 0.741848 3.79047 0.703577C4.24147 0.666729 4.7951 0.666738 5.46591 0.666748ZM3.92619 2.36471C3.56084 2.39456 3.37401 2.44866 3.24368 2.51507C2.93007 2.67486 2.6751 2.92983 2.51532 3.24343C2.44891 3.37376 2.3948 3.5606 2.36495 3.92595C2.33431 4.30102 2.33366 4.78627 2.33366 5.50008V10.2501C2.33366 10.8439 2.33411 11.2475 2.35551 11.5612C2.37641 11.8675 2.41445 12.0266 2.46053 12.1379C2.62968 12.5463 2.95414 12.8707 3.36252 13.0399C3.47377 13.086 3.63295 13.124 3.93916 13.1449C4.25286 13.1663 4.6565 13.1667 5.25033 13.1667C5.27381 13.1667 5.29708 13.1667 5.32017 13.1667C5.65816 13.1664 5.95542 13.1661 6.24138 13.2336C6.61911 13.3228 6.97089 13.4987 7.26886 13.7474C7.49444 13.9356 7.67257 14.1736 7.87511 14.4442C7.88895 14.4627 7.9029 14.4813 7.91699 14.5001L9.00033 15.9445L10.0837 14.5001C10.0977 14.4813 10.1117 14.4627 10.1255 14.4442C10.3281 14.1736 10.5062 13.9356 10.7318 13.7474C11.0298 13.4987 11.3815 13.3228 11.7593 13.2336C12.0452 13.1661 12.3425 13.1664 12.6805 13.1667C12.7036 13.1667 12.7268 13.1667 12.7503 13.1667C13.3442 13.1667 13.7478 13.1663 14.0615 13.1449C14.3677 13.124 14.5269 13.086 14.6381 13.0399C15.0465 12.8707 15.371 12.5463 15.5401 12.1379C15.5862 12.0266 15.6242 11.8675 15.6451 11.5612C15.6665 11.2475 15.667 10.8439 15.667 10.2501V5.50008C15.667 4.78627 15.6663 4.30102 15.6357 3.92595C15.6058 3.5606 15.5517 3.37376 15.4853 3.24343C15.3255 2.92983 15.0706 2.67486 14.757 2.51507C14.6266 2.44866 14.4398 2.39456 14.0745 2.36471C13.6994 2.33406 13.2141 2.33342 12.5003 2.33342H5.50033C4.78651 2.33342 4.30127 2.33406 3.92619 2.36471Z" fill="white"/>
</svg>
