<svg width="18" height="18" viewBox="0 0 18 18" fill="none" xmlns="http://www.w3.org/2000/svg">
<path fill-rule="evenodd" clip-rule="evenodd" d="M5.46542 0.666748H12.5343C13.2051 0.666738 13.7587 0.666729 14.2097 0.703577C14.6781 0.741848 15.1087 0.823985 15.5131 1.03006C16.1403 1.34964 16.6503 1.85957 16.9699 2.48678C17.1759 2.89123 17.2581 3.32181 17.2963 3.79023C17.3332 4.24122 17.3332 4.79485 17.3332 5.46565V10.2786C17.3332 10.8368 17.3332 11.2975 17.3074 11.6747C17.2808 12.0658 17.2237 12.4275 17.0794 12.7757C16.7411 13.5925 16.0922 14.2414 15.2754 14.5797C14.9273 14.7239 14.5655 14.781 14.1745 14.8077C13.7973 14.8334 13.3366 14.8334 12.7784 14.8334H12.7498C12.3027 14.8334 12.2139 14.8387 12.1417 14.8557C12.0158 14.8854 11.8985 14.9441 11.7992 15.027C11.7422 15.0745 11.6848 15.1424 11.4165 15.5001L10.1857 17.1411C10.1079 17.2449 10.02 17.3623 9.93534 17.4564C9.842 17.5601 9.68687 17.713 9.45293 17.804C9.1615 17.9173 8.83818 17.9173 8.54675 17.804C8.31281 17.713 8.15767 17.5601 8.06434 17.4564C7.9797 17.3623 7.89175 17.2449 7.81396 17.1411L6.58317 15.5001C6.31489 15.1424 6.25745 15.0745 6.20046 15.027C6.10114 14.9441 5.98388 14.8854 5.85797 14.8557C5.78573 14.8387 5.69697 14.8334 5.24984 14.8334H5.22128C4.66312 14.8334 4.20239 14.8334 3.82522 14.8077C3.43415 14.781 3.0724 14.7239 2.72423 14.5797C1.90747 14.2414 1.25855 13.5925 0.92024 12.7757C0.776019 12.4275 0.718908 12.0658 0.692225 11.6747C0.666491 11.2975 0.666497 10.8368 0.666504 10.2786L0.666504 5.46567C0.666494 4.79486 0.666485 4.24122 0.703333 3.79023C0.741604 3.32181 0.823741 2.89123 1.02982 2.48678C1.34939 1.85957 1.85933 1.34964 2.48654 1.03006C2.89098 0.823985 3.32157 0.741848 3.78998 0.703577C4.24098 0.666729 4.79461 0.666738 5.46542 0.666748ZM3.9257 2.36471C3.56036 2.39456 3.37352 2.44866 3.24319 2.51507C2.92958 2.67486 2.67462 2.92983 2.51483 3.24343C2.44842 3.37376 2.39431 3.5606 2.36446 3.92595C2.33382 4.30102 2.33317 4.78627 2.33317 5.50008V10.2501C2.33317 10.8439 2.33362 11.2475 2.35503 11.5612C2.37592 11.8675 2.41396 12.0266 2.46004 12.1379C2.6292 12.5463 2.95365 12.8707 3.36203 13.0399C3.47328 13.086 3.63246 13.124 3.93867 13.1449C4.25237 13.1663 4.65601 13.1667 5.24984 13.1667C5.27332 13.1667 5.2966 13.1667 5.31969 13.1667C5.65767 13.1664 5.95493 13.1661 6.24089 13.2336C6.61862 13.3228 6.9704 13.4987 7.26837 13.7474C7.49395 13.9356 7.67208 14.1736 7.87462 14.4442C7.88846 14.4627 7.90241 14.4813 7.9165 14.5001L8.99984 15.9445L10.0832 14.5001C10.0973 14.4813 10.1112 14.4627 10.1251 14.4442C10.3276 14.1736 10.5057 13.9356 10.7313 13.7474C11.0293 13.4987 11.3811 13.3228 11.7588 13.2336C12.0447 13.1661 12.342 13.1664 12.68 13.1667C12.7031 13.1667 12.7264 13.1667 12.7498 13.1667C13.3437 13.1667 13.7473 13.1663 14.061 13.1449C14.3672 13.124 14.5264 13.086 14.6376 13.0399C15.046 12.8707 15.3705 12.5463 15.5396 12.1379C15.5857 12.0266 15.6238 11.8675 15.6446 11.5612C15.6661 11.2475 15.6665 10.8439 15.6665 10.2501V5.50008C15.6665 4.78627 15.6659 4.30102 15.6352 3.92595C15.6054 3.5606 15.5513 3.37376 15.4848 3.24343C15.3251 2.92983 15.0701 2.67486 14.7565 2.51507C14.6262 2.44866 14.4393 2.39456 14.074 2.36471C13.6989 2.33406 13.2137 2.33342 12.4998 2.33342H5.49984C4.78602 2.33342 4.30078 2.33406 3.9257 2.36471Z" fill="#090B0C"/>
</svg>
