<svg width="20" height="17" viewBox="0 0 20 17" fill="none" xmlns="http://www.w3.org/2000/svg">
<path fill-rule="evenodd" clip-rule="evenodd" d="M7.91686 2.33341C6.30603 2.33341 5.0002 3.63925 5.0002 5.25008C5.0002 6.86091 6.30603 8.16675 7.91686 8.16675C9.5277 8.16675 10.8335 6.86091 10.8335 5.25008C10.8335 3.63925 9.5277 2.33341 7.91686 2.33341ZM3.33353 5.25008C3.33353 2.71878 5.38556 0.666748 7.91686 0.666748C10.4482 0.666748 12.5002 2.71878 12.5002 5.25008C12.5002 7.78139 10.4482 9.83341 7.91686 9.83341C5.38556 9.83341 3.33353 7.78139 3.33353 5.25008ZM12.5873 1.51902C12.7921 1.10687 13.2922 0.938799 13.7044 1.14362C15.2115 1.8926 16.2502 3.44928 16.2502 5.25008C16.2502 7.05088 15.2115 8.60756 13.7044 9.35654C13.2922 9.56136 12.7921 9.39329 12.5873 8.98114C12.3824 8.56899 12.5505 8.06884 12.9627 7.86402C13.9251 7.38575 14.5835 6.39405 14.5835 5.25008C14.5835 4.10611 13.9251 3.11441 12.9627 2.63614C12.5505 2.43132 12.3824 1.93117 12.5873 1.51902ZM7.91686 13.1667C5.80123 13.1667 3.82314 14.2712 2.32214 16.1816C2.0378 16.5435 1.51392 16.6064 1.15202 16.322C0.790126 16.0377 0.727253 15.5138 1.01159 15.1519C2.75475 12.9333 5.18114 11.5001 7.91686 11.5001C10.6526 11.5001 13.079 12.9333 14.8221 15.1519C15.1065 15.5138 15.0436 16.0377 14.6817 16.322C14.3198 16.6064 13.7959 16.5435 13.5116 16.1816C12.0106 14.2712 10.0325 13.1667 7.91686 13.1667ZM14.241 12.6285C14.4307 12.2092 14.9244 12.0231 15.3438 12.2129C16.742 12.8456 17.9786 13.8661 18.9888 15.1519C19.2731 15.5138 19.2103 16.0377 18.8484 16.322C18.4865 16.6064 17.9626 16.5435 17.6783 16.1816C16.8093 15.0757 15.7775 14.2385 14.6566 13.7313C14.2373 13.5416 14.0512 13.0478 14.241 12.6285Z" fill="#090B0C"/>
</svg>
