<svg width="20" height="16" viewBox="0 0 20 16" fill="none" xmlns="http://www.w3.org/2000/svg">
<path fill-rule="evenodd" clip-rule="evenodd" d="M9.62026 3.05977C8.40574 3.43648 7.12624 3.83333 5.83338 3.83333C4.97738 3.83333 4.21208 3.74238 3.566 3.61824C3.12614 3.53372 2.8331 3.47777 2.62203 3.44987C2.58044 3.44437 2.54601 3.44054 2.51771 3.43792C2.5159 3.45626 2.51408 3.47783 2.51241 3.50299C2.50049 3.68236 2.50005 3.9332 2.50005 4.32404L2.50005 13.281C2.50005 13.312 2.50008 13.3319 2.5003 13.3474C2.50214 13.3503 2.50405 13.3533 2.50602 13.3563C2.50797 13.3593 2.50991 13.3622 2.51182 13.365C2.94621 13.5491 3.92738 13.8333 5.83338 13.8333C7.36424 13.8333 8.71808 13.452 10.0675 13.0368C10.1711 13.005 10.2752 12.9727 10.3798 12.9402C11.5943 12.5635 12.8738 12.1667 14.1667 12.1667C15.0227 12.1667 15.788 12.2576 16.4341 12.3818C16.874 12.4663 17.167 12.5222 17.3781 12.5501C17.4197 12.5556 17.4541 12.5595 17.4824 12.5621C17.4842 12.5437 17.486 12.5222 17.4877 12.497C17.4996 12.3176 17.5 12.0668 17.5 11.676V2.71895C17.5 2.68797 17.5 2.66812 17.4998 2.65263C17.4979 2.64971 17.496 2.64674 17.4941 2.64372C17.4921 2.64073 17.4902 2.6378 17.4883 2.63495C17.0539 2.45088 16.0727 2.16667 14.1667 2.16667C12.6359 2.16667 11.282 2.54795 9.93262 2.96315C9.829 2.99503 9.72487 3.02733 9.62026 3.05977ZM17.5811 12.5669C17.5829 12.5667 17.584 12.5667 17.5842 12.5667L17.5811 12.5669ZM2.41904 3.43308C2.41698 3.43328 2.4159 3.43333 2.41587 3.4333L2.41904 3.43308ZM9.44247 1.37018C10.8014 0.95205 12.3642 0.5 14.1667 0.5C16.288 0.5 17.5133 0.824088 18.1965 1.12542C18.1984 1.12629 18.2006 1.12725 18.203 1.1283C18.2392 1.14413 18.3219 1.1804 18.4128 1.24003C18.5055 1.30084 18.5828 1.36935 18.6507 1.43412C18.7557 1.53428 18.8434 1.66171 18.8903 1.73359C18.9372 1.80547 19.0183 1.9372 19.0676 2.07365C19.1668 2.34839 19.1668 2.54346 19.1667 2.70775L19.1667 11.7041C19.1667 12.0587 19.1667 12.3659 19.1507 12.6075C19.1357 12.833 19.1019 13.1483 18.9396 13.4265C18.8512 13.578 18.7359 13.738 18.5668 13.8778C18.3976 14.0175 18.2187 14.1005 18.0533 14.1587C17.7377 14.2698 17.3925 14.2332 17.1597 14.2024C16.8942 14.1673 16.5526 14.1017 16.1458 14.0235L16.1196 14.0185C15.5644 13.9118 14.9049 13.8333 14.1667 13.8333C13.1379 13.8333 12.0952 14.1552 10.8114 14.5516C10.7279 14.5773 10.6433 14.6035 10.5576 14.6298C9.19868 15.0479 7.63585 15.5 5.83338 15.5C3.7121 15.5 2.48675 15.1759 1.80363 14.8746C1.80165 14.8737 1.79946 14.8728 1.79707 14.8717C1.76095 14.8559 1.67817 14.8196 1.58728 14.76C1.49462 14.6992 1.41724 14.6306 1.34938 14.5659C1.24442 14.4657 1.15666 14.3383 1.1098 14.2664C1.06294 14.1945 0.98178 14.0628 0.932495 13.9264C0.833262 13.6516 0.833324 13.4565 0.833376 13.2922L0.833378 4.29588C0.833367 3.94132 0.833358 3.63407 0.849408 3.3925C0.86439 3.167 0.89818 2.85169 1.06051 2.57348C1.14888 2.42202 1.26417 2.26199 1.43333 2.12224C1.60249 1.98249 1.7814 1.89947 1.94681 1.84126C2.26242 1.7302 2.60754 1.76679 2.84044 1.79758C3.10591 1.83267 3.44751 1.89831 3.85426 1.97647L3.88048 1.98151C4.43571 2.08819 5.09518 2.16667 5.83338 2.16667C6.86219 2.16667 7.90491 1.84477 9.18868 1.44845C9.27224 1.42265 9.35681 1.39654 9.44247 1.37018ZM15 4.66667C15.4603 4.66667 15.8334 5.03976 15.8334 5.5V8.83333C15.8334 9.29357 15.4603 9.66667 15 9.66667C14.5398 9.66667 14.1667 9.29357 14.1667 8.83333V5.5C14.1667 5.03976 14.5398 4.66667 15 4.66667ZM10 6.75C9.30969 6.75 8.75005 7.30964 8.75005 8C8.75005 8.69035 9.30969 9.25 10 9.25C10.6904 9.25 11.25 8.69035 11.25 8C11.25 7.30964 10.6904 6.75 10 6.75ZM7.08338 8C7.08338 6.38917 8.38921 5.08333 10 5.08333C11.6109 5.08333 12.9167 6.38917 12.9167 8C12.9167 9.61083 11.6109 10.9167 10 10.9167C8.38921 10.9167 7.08338 9.61083 7.08338 8ZM5.00005 6.33333C5.46028 6.33333 5.83338 6.70643 5.83338 7.16667V10.5C5.83338 10.9602 5.46028 11.3333 5.00005 11.3333C4.53981 11.3333 4.16671 10.9602 4.16671 10.5V7.16667C4.16671 6.70643 4.53981 6.33333 5.00005 6.33333Z" fill="#090B0C"/>
</svg>
