<svg width="18" height="12" viewBox="0 0 18 12" fill="none" xmlns="http://www.w3.org/2000/svg">
<path fill-rule="evenodd" clip-rule="evenodd" d="M0.666626 1.00008C0.666626 0.539844 1.03972 0.166748 1.49996 0.166748H16.5C16.9602 0.166748 17.3333 0.539844 17.3333 1.00008C17.3333 1.46032 16.9602 1.83341 16.5 1.83341H1.49996C1.03972 1.83341 0.666626 1.46032 0.666626 1.00008ZM3.16663 6.00008C3.16663 5.53984 3.53972 5.16675 3.99996 5.16675H14C14.4602 5.16675 14.8333 5.53984 14.8333 6.00008C14.8333 6.46032 14.4602 6.83341 14 6.83341H3.99996C3.53972 6.83341 3.16663 6.46032 3.16663 6.00008ZM5.66663 11.0001C5.66663 10.5398 6.03972 10.1667 6.49996 10.1667H11.5C11.9602 10.1667 12.3333 10.5398 12.3333 11.0001C12.3333 11.4603 11.9602 11.8334 11.5 11.8334H6.49996C6.03972 11.8334 5.66663 11.4603 5.66663 11.0001Z" fill="#090B0C"/>
</svg>
