<svg width="12" height="12" viewBox="0 0 12 12" fill="none" xmlns="http://www.w3.org/2000/svg">
<path fill-rule="evenodd" clip-rule="evenodd" d="M11.3333 0C11.7015 0 12 0.298477 12 0.666667V1.62963C12 2.72465 12 3.58728 11.9433 4.28148C11.8854 4.98972 11.7652 5.58115 11.4914 6.11862C11.044 6.99671 10.33 7.71062 9.45196 8.15803C8.91449 8.43188 8.32305 8.55209 7.61481 8.60996C6.9206 8.66668 6.05796 8.66667 4.96292 8.66667H2.27614L4.4714 10.8619C4.73175 11.1223 4.73175 11.5444 4.4714 11.8047C4.21106 12.0651 3.78894 12.0651 3.5286 11.8047L0.195262 8.47141C-0.0650874 8.21106 -0.0650874 7.78895 0.195262 7.5286L3.5286 4.19526C3.78894 3.93491 4.21106 3.93491 4.4714 4.19526C4.73175 4.45561 4.73175 4.87772 4.4714 5.13807L2.27614 7.33333H4.93333C6.06444 7.33333 6.87267 7.33282 7.50624 7.28105C8.13202 7.22992 8.52846 7.13214 8.84664 6.97002C9.47384 6.65044 9.98378 6.14051 10.3034 5.5133C10.4655 5.19512 10.5633 4.79869 10.6144 4.1729C10.6661 3.53934 10.6667 2.73111 10.6667 1.6V0.666667C10.6667 0.298477 10.9651 0 11.3333 0Z" fill="#090B0C"/>
</svg>
