<svg width="19" height="19" viewBox="0 0 19 19" fill="none" xmlns="http://www.w3.org/2000/svg">
<path fill-rule="evenodd" clip-rule="evenodd" d="M8.67085 2.52303C8.59725 2.50536 8.50941 2.5 8.0621 2.5H4.33334C3.85288 2.5 3.54265 2.50065 3.30653 2.51994C3.08015 2.53844 2.99622 2.56984 2.95501 2.59083C2.79821 2.67073 2.67073 2.79821 2.59083 2.95501C2.56984 2.99621 2.53844 3.08015 2.51994 3.30653C2.50065 3.54265 2.5 3.85288 2.5 4.33334L2.5 8.0621C2.5 8.50942 2.50536 8.59725 2.52303 8.67085C2.54344 8.75588 2.57711 8.83717 2.6228 8.91173C2.66235 8.97626 2.72067 9.04216 3.03697 9.35846L9.4275 15.749C9.93224 16.2537 10.2758 16.5964 10.5627 16.8399C10.8422 17.0772 11.0125 17.171 11.1516 17.2162C11.4864 17.325 11.847 17.325 12.1817 17.2162C12.3208 17.171 12.4912 17.0772 12.7706 16.8399C13.0575 16.5964 13.4011 16.2537 13.9058 15.749L15.749 13.9058C16.2537 13.4011 16.5964 13.0575 16.8399 12.7706C17.0772 12.4912 17.171 12.3208 17.2162 12.1817C17.325 11.847 17.325 11.4864 17.2162 11.1516C17.171 11.0125 17.0772 10.8422 16.8399 10.5627C16.5964 10.2758 16.2537 9.93224 15.749 9.4275L9.35846 3.03697C9.04216 2.72067 8.97626 2.66235 8.91173 2.6228C8.83717 2.57711 8.75588 2.54344 8.67085 2.52303ZM8.13152 0.833294C8.4706 0.832978 8.76956 0.8327 9.05993 0.902412C9.31502 0.963654 9.55888 1.06466 9.78256 1.20174C10.0372 1.35777 10.2484 1.56936 10.4879 1.80934C10.5041 1.82559 10.5205 1.84197 10.537 1.85846L16.9518 8.27334C17.4262 8.74766 17.8177 9.13912 18.1105 9.48408C18.4147 9.84236 18.6611 10.2049 18.8013 10.6366C19.0188 11.3061 19.0188 12.0272 18.8013 12.6967C18.6611 13.1284 18.4147 13.491 18.1105 13.8493C17.8177 14.1942 17.4262 14.5857 16.9518 15.06L15.06 16.9518C14.5857 17.4262 14.1942 17.8177 13.8493 18.1105C13.491 18.4147 13.1284 18.6611 12.6967 18.8013C12.0272 19.0188 11.3061 19.0188 10.6366 18.8013C10.2049 18.6611 9.84236 18.4147 9.48408 18.1105C9.13911 17.8177 8.74763 17.4262 8.2733 16.9518L1.85846 10.537C1.84197 10.5205 1.82559 10.5041 1.80935 10.4879C1.56936 10.2484 1.35777 10.0372 1.20174 9.78256C1.06466 9.55888 0.963654 9.31502 0.902412 9.05993C0.8327 8.76956 0.832978 8.4706 0.833294 8.13152C0.833315 8.10857 0.833337 8.08543 0.833337 8.0621L0.833336 4.30122C0.833322 3.86193 0.833309 3.48296 0.858812 3.17081C0.885729 2.84136 0.945159 2.51368 1.10582 2.19836C1.3455 1.72796 1.72796 1.3455 2.19836 1.10582C2.51368 0.945159 2.84136 0.885729 3.17081 0.858811C3.48296 0.833308 3.86193 0.833321 4.30122 0.833336L8.0621 0.833337C8.08543 0.833337 8.10857 0.833315 8.13152 0.833294ZM5.41667 6.66667C5.41667 5.97631 5.97632 5.41667 6.66667 5.41667C7.35703 5.41667 7.91667 5.97631 7.91667 6.66667C7.91667 7.35703 7.35703 7.91667 6.66667 7.91667C5.97632 7.91667 5.41667 7.35703 5.41667 6.66667Z" fill="#090B0C"/>
</svg>
