<svg width="18" height="18" viewBox="0 0 18 18" fill="none" xmlns="http://www.w3.org/2000/svg">
<path d="M7.84075 1.44861C8.26156 0.405478 9.73837 0.405478 10.1592 1.4486L11.7736 5.45037C11.8326 5.59656 11.969 5.69695 12.1261 5.70977L16.1812 6.04065C17.2807 6.13037 17.7335 7.49656 16.9051 8.22512L13.828 10.9315C13.7141 11.0317 13.6637 11.1858 13.6963 11.3339L14.6803 15.8065C14.926 16.9237 13.6663 17.7568 12.7344 17.0933L9.24164 14.6064C9.09699 14.5034 8.90295 14.5034 8.7583 14.6064L5.26551 17.0933C4.33363 17.7568 3.07389 16.9237 3.31969 15.8065L4.30367 11.3339C4.33626 11.1858 4.28579 11.0317 4.17191 10.9315L1.09471 8.22514C0.266329 7.49658 0.719044 6.13037 1.81857 6.04065L5.87383 5.70977C6.03095 5.69695 6.16738 5.59656 6.22635 5.45037L7.84075 1.44861Z" fill="#8077F6"/>
</svg>
